<svg width="55" height="57" viewBox="0 0 55 57" fill="none" xmlns="http://www.w3.org/2000/svg">
<path d="M27.5281 56.3431C42.7008 56.3431 55.0006 43.9186 55.0006 28.5922C55.0006 13.2657 42.7008 0.841187 27.5281 0.841187C12.3555 0.841187 0.0556946 13.2657 0.0556946 28.5922C0.0556946 43.9186 12.3555 56.3431 27.5281 56.3431Z" fill="#FFED00"/>
<path d="M33.7343 36.3057L33.43 29.7599L38.602 20.7249C38.9627 20.092 39.0611 19.3409 38.876 18.635L37.0805 11.8124L30.3263 13.6255C29.9806 13.718 29.657 13.88 29.3747 14.1018C29.0924 14.3236 28.8574 14.6006 28.6835 14.9163L23.5115 23.9513L17.7618 26.9628C17.2997 27.2044 16.9186 27.5787 16.6665 28.0386L15.2365 30.5278C15.1867 30.612 15.1543 30.7056 15.1411 30.8028C15.128 30.9001 15.1344 30.999 15.16 31.0936C15.1856 31.1883 15.2298 31.2768 15.29 31.3538C15.3502 31.4308 15.4252 31.4947 15.5105 31.5418L17.8225 32.8962L14.8412 38.1512C14.7673 38.2784 14.7189 38.419 14.6988 38.565C14.6787 38.711 14.6872 38.8596 14.7239 39.0023C14.7607 39.145 14.8249 39.279 14.9128 39.3966C15.0008 39.5143 15.1109 39.6132 15.2368 39.6879C15.3626 39.7626 15.5018 39.8114 15.6464 39.8318C15.7909 39.8521 15.938 39.8435 16.0793 39.8064C16.2206 39.7693 16.3532 39.7044 16.4696 39.6155C16.5861 39.5267 16.6841 39.4155 16.758 39.2883L19.7392 34.0333L23.237 36.0614L27.0093 38.2743L24.028 43.5294C23.8788 43.7861 23.8366 44.0923 23.9108 44.3804C23.9849 44.6686 24.1694 44.9152 24.4236 45.066C24.6778 45.2168 24.9808 45.2594 25.2661 45.1845C25.5514 45.1096 25.7955 44.9232 25.9448 44.6665L28.9261 39.4114L30.9664 40.6098C31.0498 40.66 31.1425 40.6928 31.2387 40.7061C31.335 40.7193 31.4329 40.7129 31.5266 40.687C31.6203 40.6612 31.7079 40.6165 31.7842 40.5557C31.8604 40.4949 31.9237 40.4191 31.9703 40.333L33.3979 37.8403C33.6416 37.3675 33.7576 36.8382 33.7343 36.3057Z" fill="black"/>
<path d="M34.2211 22.0769L31.9697 20.7555L35.1643 17.621L28.3798 20.4787L30.6312 21.8019L27.4366 24.9365L34.2211 22.0769Z" fill="white"/>
</svg>

